HIERARCHY
ROOT Hips
{
	OFFSET 0.00000 0.00000 0.00000
	CHANNELS 6 Xposition Yposition Zposition Zrotation Yrotation Xrotation 
	JOINT LHipJoint
	{
		OFFSET 0 0 0
		CHANNELS 3 Zrotation Yrotation Xrotation
		JOINT LeftUpLeg
		{
			OFFSET 1.53139 -1.83434 0.76626
			CHANNELS 3 Zrotation Yrotation Xrotation
			JOINT LeftLeg
			{
				OFFSET 2.56112 -7.03663 0.00000
				CHANNELS 3 Zrotation Yrotation Xrotation
				JOINT LeftFoot
				{
					OFFSET 2.59983 -7.14299 0.00000
					CHANNELS 3 Zrotation Yrotation Xrotation
					JOINT LeftToeBase
					{
						OFFSET 0.13742 -0.37757 2.00054
						CHANNELS 3 Zrotation Yrotation Xrotation
						End Site
						{
							OFFSET 0.00000 -0.00000 1.02897
						}
					}
				}
			}
		}
	}
	JOINT RHipJoint
	{
		OFFSET 0 0 0
		CHANNELS 3 Zrotation Yrotation Xrotation
		JOINT RightUpLeg
		{
			OFFSET -1.40122 -1.83435 0.76627
			CHANNELS 3 Zrotation Yrotation Xrotation
			JOINT RightLeg
			{
				OFFSET -2.54052 -6.98003 0.00000
				CHANNELS 3 Zrotation Yrotation Xrotation
				JOINT RightFoot
				{
					OFFSET -2.63179 -7.23079 0.00000
					CHANNELS 3 Zrotation Yrotation Xrotation
					JOINT RightToeBase
					{
						OFFSET -0.24131 -0.66299 2.03908
						CHANNELS 3 Zrotation Yrotation Xrotation
						End Site
						{
							OFFSET -0.00000 -0.00000 1.07391
						}
					}
				}
			}
		}
	}
	JOINT LowerBack
	{
		OFFSET 0 0 0
		CHANNELS 3 Zrotation Yrotation Xrotation
		JOINT Spine
		{
			OFFSET 0.01174 2.10302 -0.29778
			CHANNELS 3 Zrotation Yrotation Xrotation
			JOINT Spine1
			{
				OFFSET 0.00772 2.13227 -0.01247
				CHANNELS 3 Zrotation Yrotation Xrotation
				JOINT Neck
				{
					OFFSET 0 0 0
					CHANNELS 3 Zrotation Yrotation Xrotation
					JOINT Neck1
					{
						OFFSET -0.09219 1.60848 0.31481
						CHANNELS 3 Zrotation Yrotation Xrotation
						JOINT Head
						{
							OFFSET 0.13974 1.65456 -0.31134
							CHANNELS 3 Zrotation Yrotation Xrotation
							End Site
							{
								OFFSET 0.04742 1.69515 -0.14578
							}
						}
					}
				}
				JOINT LeftShoulder
				{
					OFFSET 0 0 0
					CHANNELS 3 Zrotation Yrotation Xrotation
					JOINT LeftArm
					{
						OFFSET 3.24909 1.02882 -0.23993
						CHANNELS 3 Zrotation Yrotation Xrotation
						JOINT LeftForeArm
						{
							OFFSET 5.32955 -0.00000 -0.00000
							CHANNELS 3 Zrotation Yrotation Xrotation
							JOINT LeftHand
							{
								OFFSET 3.69232 -0.00000 -0.00000
								CHANNELS 3 Zrotation Yrotation Xrotation
								JOINT LeftFingerBase
								{
									OFFSET 0 0 0
									CHANNELS 3 Zrotation Yrotation Xrotation
									JOINT LeftHandIndex1
									{
										OFFSET 0.53660 -0.00000 -0.00000
										CHANNELS 3 Zrotation Yrotation Xrotation
										End Site
										{
											OFFSET 0.43262 -0.00000 -0.00000
										}
									}
								}
								JOINT LThumb
								{
									OFFSET 0 0 0
									CHANNELS 3 Zrotation Yrotation Xrotation
									End Site
									{
										OFFSET 0.43922 -0.00000 0.43922
									}
								}
							}
						}
					}
				}
				JOINT RightShoulder
				{
					OFFSET 0 0 0
					CHANNELS 3 Zrotation Yrotation Xrotation
					JOINT RightArm
					{
						OFFSET -3.21387 0.93002 -0.34594
						CHANNELS 3 Zrotation Yrotation Xrotation
						JOINT RightForeArm
						{
							OFFSET -5.23431 -0.00000 0.00000
							CHANNELS 3 Zrotation Yrotation Xrotation
							JOINT RightHand
							{
								OFFSET -3.55301 -0.00000 -0.00000
								CHANNELS 3 Zrotation Yrotation Xrotation
								JOINT RightFingerBase
								{
									OFFSET 0 0 0
									CHANNELS 3 Zrotation Yrotation Xrotation
									JOINT RightHandIndex1
									{
										OFFSET -0.77252 -0.00000 -0.00000
										CHANNELS 3 Zrotation Yrotation Xrotation
										End Site
										{
											OFFSET -0.62283 -0.00000 -0.00000
										}
									}
								}
								JOINT RThumb
								{
									OFFSET 0 0 0
									CHANNELS 3 Zrotation Yrotation Xrotation
									End Site
									{
										OFFSET -0.63234 -0.00000 0.63234
									}
								}
							}
						}
					}
				}
			}
		}
	}
}
MOTION
Frames: 5
Frame Time: 0.4
0.00 0.00 0.00 0 0 0 0 0 0 -21 0 0 0 0 0 0 0 0 0 0 0 0 0 0 21 0 0 0 0 0 0 0 0 0 0 0 0 0 0 0 0 0 0 0 0 0 0 -16 0 0 21 0 0 11 0 0 0 -8 0 0 0 0 0 0 0 0 0 0 0 0 0 0 0 0 0 0 0 0 8 0 0 0 0 0 0 0 0 0 0 0 0 0 0 0 0 0
0.00 0.00 0.00 -163.9030 82.5176 -166.6740 0.0000 0.0000 0.0000 -15.8265 -0.7013 1.5525 0.8472 5.8706 16.4094 0.3870 -2.3458 -11.1743 0.1769 -2.7089 -7.4694 0.0000 0.0000 0.0000 5.9741 2.5672 -7.1590 -2.5741 -9.9713 28.8840 0.5143 -12.8906 -7.7584 -1.6350 -8.0603 22.8974 -3.2236 1.3778 9.5883 0.1181 1.5066 0.2411 1.7262 0.8337 -5.2169 -13.5238 -7.8598 -16.7351 11.4981 -10.3672 30.9289 5.2818 -4.2940 14.9516 0.0000 0.0000 0.0000 -85.1459 -0.1408 24.6551 12.5762 -20.6631 -2.3016 -0.0000 -0.0000 9.0928 -0.0000 -0.0000 0.0000 -0.0000 0.0000 0.0000 0.0000 0.0000 0.0000 0.0000 0.0000 0.0000 90.8843 -4.5517 1.0094 -17.0775 26.9598 -4.1224 0.0000 0.0000 8.9537 -13.1745 9.9430 -2.3145 7.1250 -0.0000 -0.0000 9.8246 -19.8468 5.9934
0.00 0.00 0.00 -361.4690 47.4623 -365.3800 0.0000 0.0000 0.0000 -20.4866 -10.0935 -12.6123 3.0481 10.7726 31.5167 -1.7932 -26.6122 -4.6579 0.1790 -2.7251 -7.5143 0.0000 0.0000 0.0000 21.0652 4.3189 -9.6551 -3.6387 -11.6634 34.5513 -0.7784 10.7190 -16.3638 -0.0684 -1.6879 4.6438 -0.6079 0.1591 12.7417 -0.1586 0.1417 1.1307 0.1504 0.0942 -5.9594 -14.3004 -9.0734 -12.4061 13.4745 -13.9107 33.8056 5.8370 -5.9312 16.2765 0.0000 -0.0000 0.0000 -86.8371 1.5458 24.0222 17.4986 -27.5104 -4.3151 -0.0000 -0.0000 8.2985 19.2619 21.8605 7.4135 -7.1250 0.0000 -0.0000 -9.8653 52.7376 -1.8932 0.0000 -0.0000 0.0000 86.3705 -8.7311 3.8723 -19.8514 30.4629 -5.4558 0.0000 0.0000 2.8304 -18.8162 6.3387 -2.1545 7.1250 -0.0000 -0.0000 5.8422 -23.2941 3.0711
0.00 0.00 0.00 -362.7320 6.2634 -363.3910 0.0000 0.0000 0.0000 -1.0177 -9.5275 1.1840 2.5871 9.9946 28.9594 -0.5585 15.4785 3.1211 0.4890 -4.4837 -12.4415 0.0000 0.0000 0.0000 14.7052 2.2372 -6.9864 -1.5164 -7.7764 22.0371 -0.2010 1.8013 -8.0327 -0.2726 3.3582 -9.2776 -3.0514 0.6664 12.6925 0.9858 0.5228 1.4763 2.6719 0.3362 -5.6028 -13.8705 -8.2088 -14.6744 13.1129 -12.8072 33.3593 5.6870 -5.5510 16.2672 -0.0000 -0.0000 0.0000 -80.7223 -0.6378 20.7623 16.2522 -25.8614 -3.7553 -0.0000 -0.0000 0.9627 22.5189 25.4864 10.1152 -7.1250 0.0000 -0.0000 -7.9794 57.0967 -2.3751 -0.0000 -0.0000 0.0000 91.6484 -9.0442 4.4713 -16.2176 25.8149 -3.7402 0.0000 0.0000 6.7674 -17.7846 6.9042 -2.2082 7.1250 -0.0000 -0.0000 6.5889 -22.7462 3.5517
0.00 0.00 0.00 -361.5570 -2.3749 -362.2260 0.0000 0.0000 0.0000 -15.5302 -7.6034 -11.2543 4.9981 13.3816 40.8144 0.7301 -12.5336 -16.4408 1.2645 -7.1280 -20.0951 0.0000 0.0000 0.0000 18.9277 2.7245 -3.3673 -2.2860 -9.4380 27.1754 -0.9099 0.6727 -17.8162 -0.1639 2.6082 -7.1897 -0.5809 1.0395 12.3880 -0.1923 1.2851 0.7744 -0.0987 0.6422 -6.1450 -13.4955 -8.0269 -16.5119 12.4167 -11.9374 31.2419 5.3067 -5.1657 15.3857 -0.0000 -0.0000 0.0000 -83.2136 2.0151 26.8135 20.1320 -30.8011 -5.5988 -0.0000 -0.0000 4.2280 22.0768 23.8532 9.3145 -7.1250 0.0000 -0.0000 -7.7609 55.3200 -1.9749 -0.0000 -0.0000 0.0000 83.5756 -4.1881 13.0930 -17.5623 27.5931 -4.3446 0.0000 0.0000 2.7148 -19.3429 8.6705 -3.0292 7.1250 -0.0000 -0.0000 5.4375 -20.8175 3.1641
